<svg width="16" height="17" viewBox="0 0 16 17" fill="none" xmlns="http://www.w3.org/2000/svg">
<path fill-rule="evenodd" clip-rule="evenodd" d="M6.4 2.55996C5.12696 2.55996 3.90606 3.06567 3.00589 3.96585C2.10571 4.86602 1.6 6.08692 1.6 7.35996C1.6 7.99031 1.72416 8.61448 1.96538 9.19684C2.2066 9.7792 2.56017 10.3084 3.00589 10.7541C3.45161 11.1998 3.98076 11.5534 4.56312 11.7946C5.14548 12.0358 5.76965 12.16 6.4 12.16C7.03035 12.16 7.65452 12.0358 8.23688 11.7946C8.81924 11.5534 9.34839 11.1998 9.79411 10.7541C10.2398 10.3084 10.5934 9.7792 10.8346 9.19684C11.0758 8.61448 11.2 7.99031 11.2 7.35996C11.2 6.08692 10.6943 4.86602 9.79411 3.96585C8.89394 3.06567 7.67304 2.55996 6.4 2.55996ZM1.87452 2.83448C3.07475 1.63424 4.70261 0.959961 6.4 0.959961C8.09739 0.959961 9.72525 1.63424 10.9255 2.83448C12.1257 4.03471 12.8 5.66258 12.8 7.35996C12.8 8.20042 12.6345 9.03265 12.3128 9.80914C12.0938 10.338 11.8052 10.834 11.4557 11.2843L15.7657 15.5943C16.0781 15.9067 16.0781 16.4132 15.7657 16.7256C15.4533 17.0381 14.9467 17.0381 14.6343 16.7256L10.3243 12.4156C9.874 12.7652 9.37804 13.0537 8.84917 13.2728C8.07269 13.5944 7.24046 13.76 6.4 13.76C5.55954 13.76 4.72731 13.5944 3.95083 13.2728C3.17434 12.9512 2.46881 12.4797 1.87452 11.8854C1.28022 11.2911 0.808801 10.5856 0.487171 9.80914C0.165541 9.03265 0 8.20042 0 7.35996C4.76837e-08 5.66258 0.674284 4.03471 1.87452 2.83448Z" fill="#D4C3FA"/>
</svg>
